HIERARCHY
ROOT Hips
{
	OFFSET -14.64140 90.27770 -84.91600
	CHANNELS 6 Xposition Yposition Zposition Zrotation Xrotation Yrotation
	JOINT Spine
	{
		OFFSET 0.00000 13.20850 -1.60436
		CHANNELS 3 Zrotation Xrotation Yrotation
		JOINT Spine1
		{
			OFFSET 0.00000 8.61716 0.00000
			CHANNELS 3 Zrotation Xrotation Yrotation
			JOINT Spine2
			{
				OFFSET 0.00000 8.61717 0.00000
				CHANNELS 3 Zrotation Xrotation Yrotation
				JOINT Spine3
				{
					OFFSET 0.00000 8.61717 0.00000
					CHANNELS 3 Zrotation Xrotation Yrotation
					JOINT Neck
					{
						OFFSET 0.00000 11.07920 1.10792
						CHANNELS 3 Zrotation Xrotation Yrotation
						JOINT Neck1
						{
							OFFSET 0.00000 7.08032 0.00000
							CHANNELS 3 Zrotation Xrotation Yrotation
							JOINT Head
							{
								OFFSET 0.00000 7.08031 0.00000
								CHANNELS 3 Zrotation Xrotation Yrotation
								End site
								{
									OFFSET 0.00000 0.00000 0.00000
								}
							}
						}
					}
					JOINT RightShoulder
					{
						OFFSET -0.01000 7.91373 5.19711
						CHANNELS 3 Zrotation Xrotation Yrotation
						JOINT RightArm
						{
							OFFSET -18.41580 0.00000 0.00000
							CHANNELS 3 Zrotation Xrotation Yrotation
							JOINT RightForeArm
							{
								OFFSET -29.11090 0.00000 0.00000
								CHANNELS 3 Zrotation Xrotation Yrotation
								JOINT RightHand
								{
									OFFSET -24.65040 0.00000 0.00000
									CHANNELS 3 Zrotation Xrotation Yrotation
									JOINT RightHandThumb1
									{
										OFFSET -5.35114 -0.85590 3.97906
										CHANNELS 3 Zrotation Xrotation Yrotation
										JOINT RightHandThumb2
										{
											OFFSET -4.52789 0.00000 0.00000
											CHANNELS 3 Zrotation Xrotation Yrotation
											JOINT RightHandThumb3
											{
												OFFSET -2.46976 0.00000 0.00000
												CHANNELS 3 Zrotation Xrotation Yrotation
												End site
												{
													OFFSET 0.00000 0.00000 0.00000
												}
											}
										}
									}
									JOINT RightHandIndex1
									{
										OFFSET -14.26970 0.00000 2.88139
										CHANNELS 3 Zrotation Xrotation Yrotation
										JOINT RightHandIndex2
										{
											OFFSET -5.48836 0.00000 0.00000
											CHANNELS 3 Zrotation Xrotation Yrotation
											JOINT RightHandIndex3
											{
												OFFSET -3.01859 0.00000 0.00000
												CHANNELS 3 Zrotation Xrotation Yrotation
												End site
												{
													OFFSET 0.00000 0.00000 0.00000
												}
											}
										}
									}
									JOINT RightHandMiddle1
									{
										OFFSET -14.26970 0.00000 -0.09147
										CHANNELS 3 Zrotation Xrotation Yrotation
										JOINT RightHandMiddle2
										{
											OFFSET -6.17441 0.00000 0.00000
											CHANNELS 3 Zrotation Xrotation Yrotation
											JOINT RightHandMiddle3
											{
												OFFSET -3.56743 0.00000 0.00000
												CHANNELS 3 Zrotation Xrotation Yrotation
												End site
												{
													OFFSET 0.00000 0.00000 0.00000
												}
											}
										}
									}
									JOINT RightHandRing1
									{
										OFFSET -12.69180 0.00000 -3.06433
										CHANNELS 3 Zrotation Xrotation Yrotation
										JOINT RightHandRing2
										{
											OFFSET -5.62556 0.00000 0.00000
											CHANNELS 3 Zrotation Xrotation Yrotation
											JOINT RightHandRing3
											{
												OFFSET -3.56744 0.00000 0.00000
												CHANNELS 3 Zrotation Xrotation Yrotation
												End site
												{
													OFFSET 0.00000 0.00000 0.00000
												}
											}
										}
									}
									JOINT RightHandPinky1
									{
										OFFSET -11.11390 0.00000 -6.03719
										CHANNELS 3 Zrotation Xrotation Yrotation
										JOINT RightHandPinky2
										{
											OFFSET -4.52789 0.00000 0.00000
											CHANNELS 3 Zrotation Xrotation Yrotation
											JOINT RightHandPinky3
											{
												OFFSET -2.46976 0.00000 0.00000
												CHANNELS 3 Zrotation Xrotation Yrotation
												End site
												{
													OFFSET 0.00000 0.00000 0.00000
												}
											}
										}
									}
								}
							}
						}
					}
					JOINT LeftShoulder
					{
						OFFSET 0.01000 7.91373 5.19711
						CHANNELS 3 Zrotation Xrotation Yrotation
						JOINT LeftArm
						{
							OFFSET 18.41580 0.00000 0.00000
							CHANNELS 3 Zrotation Xrotation Yrotation
							JOINT LeftForeArm
							{
								OFFSET 29.11090 0.00000 0.00000
								CHANNELS 3 Zrotation Xrotation Yrotation
								JOINT LeftHand
								{
									OFFSET 24.65040 0.00000 0.00000
									CHANNELS 3 Zrotation Xrotation Yrotation
									JOINT LeftHandThumb1
									{
										OFFSET 5.35114 -0.85590 3.97906
										CHANNELS 3 Zrotation Xrotation Yrotation
										JOINT LeftHandThumb2
										{
											OFFSET 4.52789 0.00000 0.00000
											CHANNELS 3 Zrotation Xrotation Yrotation
											JOINT LeftHandThumb3
											{
												OFFSET 2.46977 0.00000 0.00000
												CHANNELS 3 Zrotation Xrotation Yrotation
												End site
												{
													OFFSET 0.00000 0.00000 0.00000
												}
											}
										}
									}
									JOINT LeftHandIndex1
									{
										OFFSET 14.26970 0.00000 2.88139
										CHANNELS 3 Zrotation Xrotation Yrotation
										JOINT LeftHandIndex2
										{
											OFFSET 5.48836 0.00000 0.00000
											CHANNELS 3 Zrotation Xrotation Yrotation
											JOINT LeftHandIndex3
											{
												OFFSET 3.01859 0.00000 0.00000
												CHANNELS 3 Zrotation Xrotation Yrotation
												End site
												{
													OFFSET 0.00000 0.00000 0.00000
												}
											}
										}
									}
									JOINT LeftHandMiddle1
									{
										OFFSET 14.26970 0.00000 -0.09147
										CHANNELS 3 Zrotation Xrotation Yrotation
										JOINT LeftHandMiddle2
										{
											OFFSET 6.17440 0.00000 0.00000
											CHANNELS 3 Zrotation Xrotation Yrotation
											JOINT LeftHandMiddle3
											{
												OFFSET 3.56744 0.00000 0.00000
												CHANNELS 3 Zrotation Xrotation Yrotation
												End site
												{
													OFFSET 0.00000 0.00000 0.00000
												}
											}
										}
									}
									JOINT LeftHandRing1
									{
										OFFSET 12.69180 0.00000 -3.06433
										CHANNELS 3 Zrotation Xrotation Yrotation
										JOINT LeftHandRing2
										{
											OFFSET 5.62556 0.00000 0.00000
											CHANNELS 3 Zrotation Xrotation Yrotation
											JOINT LeftHandRing3
											{
												OFFSET 3.56744 0.00000 0.00000
												CHANNELS 3 Zrotation Xrotation Yrotation
												End site
												{
													OFFSET 0.00000 0.00000 0.00000
												}
											}
										}
									}
									JOINT LeftHandPinky1
									{
										OFFSET 11.11390 0.00000 -6.03719
										CHANNELS 3 Zrotation Xrotation Yrotation
										JOINT LeftHandPinky2
										{
											OFFSET 4.52789 0.00000 0.00000
											CHANNELS 3 Zrotation Xrotation Yrotation
											JOINT LeftHandPinky3
											{
												OFFSET 2.46976 0.00000 0.00000
												CHANNELS 3 Zrotation Xrotation Yrotation
												End site
												{
													OFFSET 0.00000 0.00000 0.00000
												}
											}
										}
									}
								}
							}
						}
					}
					JOINT pCube4
					{
						OFFSET 0.00000 10.91090 1.10792
						CHANNELS 3 Zrotation Xrotation Yrotation
						End site
						{
							OFFSET 0.00000 0.00000 0.00000
						}
					}
				}
			}
		}
	}
	JOINT RightUpLeg
	{
		OFFSET -9.98441 0.00000 0.00000
		CHANNELS 3 Zrotation Xrotation Yrotation
		JOINT RightLeg
		{
			OFFSET 0.00000 -42.11790 0.00000
			CHANNELS 3 Zrotation Xrotation Yrotation
			JOINT RightFoot
			{
				OFFSET 0.00000 -45.00020 -0.00001
				CHANNELS 3 Zrotation Xrotation Yrotation
				JOINT RightForeFoot
				{
					OFFSET 0.00000 -3.74820 0.00000
					CHANNELS 3 Zrotation Xrotation Yrotation
					JOINT RightToeBase
					{
						OFFSET 0.00000 0.06325 14.43120
						CHANNELS 3 Zrotation Xrotation Yrotation
						End site
						{
							OFFSET 0.00000 0.00000 0.00000
						}
					}
				}
			}
		}
	}
	JOINT LeftUpLeg
	{
		OFFSET 9.98441 0.00000 0.00000
		CHANNELS 3 Zrotation Xrotation Yrotation
		JOINT LeftLeg
		{
			OFFSET 0.00000 -42.11800 0.00000
			CHANNELS 3 Zrotation Xrotation Yrotation
			JOINT LeftFoot
			{
				OFFSET 0.00000 -45.00070 0.00000
				CHANNELS 3 Zrotation Xrotation Yrotation
				JOINT LeftForeFoot
				{
					OFFSET 0.00000 -3.74824 0.00000
					CHANNELS 3 Zrotation Xrotation Yrotation
					JOINT LeftToeBase
					{
						OFFSET 0.00000 0.06325 14.43110
						CHANNELS 3 Zrotation Xrotation Yrotation
						End site
						{
							OFFSET 0.00000 0.00000 0.00000
						}
					}
				}
			}
		}
	}
}
MOTION
Frames: 4
Frame Time: 0.050000
0.001604185764596157 -0.008891884180083562 -0.0033640282588351268 -0.02603683437149619 0.04538649135946564 0.032557774432130815 5.499809006860498 3.5635189911766973 -2.2344166307704616 -0.7435730398492832 3.6077053885029806 0.42099201841543776 -0.5378020612838639 -1.1114217836573108 0.9032795093662066 -0.506897380107588 -0.25959393037558914 -0.2792699859149759 -0.08100925826886123 12.652349644303467 -1.1615569846367786 0.4108556932560997 -0.7886358415425647 -2.2457093171931883 0.9209681351864066 -17.551307145982683 -0.21191917797356435 -10.000081978476814 3.4552290670268344 -17.915572513771547 83.81331629542154 8.714488248336245 2.1480407398904453 -4.258863329530064 7.3330957240658226 44.22132451270499 17.667124250453064 -0.3077461253939382 -2.688969066021589 4.572460446855833 -0.13611279606577145 -1.588347558131119 0.00243207413383977 0.025308895630890522 -56.21748402496969 -0.009510651300831527 -0.009464813706647698 -56.26925451977606 -38.770714566278414 0.0090235948985421 0.043799648335833836 -0.019550931055352605 -0.005288813390444515 -0.021918539234346862 -0.00473718085118501 -0.0052849411338361345 0.028206319985420898 -36.709203250957785 0.038028767564723814 -0.0058606477639359614 -0.009134995855025222 -0.02877654079321197 -0.020708836836777215 -0.02549140853416408 -0.01084223608511591 -0.02328937802955464 -19.74113448316744 0.02449152420516064 0.02782221328614017 -0.012241862561331087 0.0010718883568144823 0.03946663511529651 0.04114867480604094 0.03804999966546439 0.0054765898923000485 24.097096808421224 0.04095069135357479 -0.03236535822046739 28.910952407736303 0.019365684647061714 0.03720910891844018 28.837841744654533 0.008792594795547585 0.00793155010157312 10.128578660652598 2.4260925329415763 15.15183703743007 -78.45515401928743 17.662313582151153 -12.636319473171659 2.1639626245751886 7.17990653945999 -45.85960585235271 -18.982408342476447 -0.7700125908329367 0.9171292944178635 -0.4612148215593583 0.08454549123091817 -8.126188559446799 -0.048434926992578835 0.02782801443676498 44.55050225341101 0.004674666761626409 -0.01713195519010702 44.55443897821788 12.45023250822903 0.02765786696316772 0.04420572482783163 0.041013948113092294 -0.0350550043445248 0.00013467797790333802 0.04361690248883872 -0.009568863789252044 -0.011887726930501734 11.125545221160298 0.019677825297046037 0.002292328950850261 -0.0109998698092154 -0.007045988127273113 -0.016830595019519137 -0.03872355058819816 0.04869987773265334 0.012510180260164967 4.7728073216444 0.012569796400414895 -0.024660650529608585 -0.02529057211743798 0.03908922413014822 0.0028686827770041086 -0.04909400529596802 -0.006089354767214356 -0.007155674425996821 -5.571161971795265 -0.005488487054037489 -0.006539749673018774 -6.700252382560313 0.01752383619992712 0.0018004383709509224 -6.758248323543222 -0.004577846391583626 0.02860051532893767 0.00158565115602147 -0.024111349404349933 0.03814337568194029 8.091340382551271 3.4862396652033683 -19.176812216807573 0.011318044452185502 10.42106583678397 0.024893334933110266 -5.6303555624565895 -15.652239377283225 3.158498183828417 0.027643518038389926 -0.020899076676336722 -0.0036861018857483187 0.01422316887414267 4.650677902855767 0.020846519653506573 12.500523416608955 -8.22536263449247 6.839858782487316 -0.0018656389186282568 46.377491341892146 -0.015038501858587152 -4.352545167238445 -14.720297142582881 -3.8486121776376008 -0.021387777142683397 0.026562625041747008 0.029016783098302745 0.036775604627431735 -10.703366947539287 0.03577834935672145 
-0.047220457614172574 0.023242298472797237 0.003211543442131597 -0.0002294747112532178 0.04241909913298026 -0.028389160239567113 5.542953868805618 3.4482023985185593 -2.2264069592108595 -0.7413646395923784 3.6529511963877064 0.3693999697231058 -0.5714837572006135 -1.0781835997524396 0.7995367333190684 -0.5397633778565649 -0.3575704732111639 -0.2127118970133304 -0.24581873036820542 13.02358030043763 -0.9908747218228534 0.3356925521896366 -0.6370030275935477 -1.6642230552605324 0.863733132618757 -17.4582914823162 -0.14787182243302577 -10.10199490748112 3.532385479682577 -17.99063844788028 83.85077066178812 8.404871764005927 2.4401737540664254 -4.151014236930484 7.545093772906635 44.28984018303173 17.757448248446828 -0.22508884637931248 -2.5464890913392852 4.51529551926742 -0.12302577010091409 -1.6083915284743295 0.04828773010275674 0.002562089802534248 -56.249194216851116 0.022208946823837537 0.048958978165112826 -56.18853928400487 -38.76490623335203 0.015897394127756124 0.03140304178653475 -0.027269098623514686 0.043969816711720934 -0.017462489969247926 0.04167549256165915 -0.04899079260230286 0.021074150308662967 -36.709126216779545 0.04096182463678993 -0.02313070268198432 -0.012323982116229575 -0.012302340694660838 0.016617749987143892 0.0342017473603501 0.020857549146786298 0.020262538597461424 -19.788756685612363 0.015243182801515837 0.04782155567425509 -0.01451671729341191 -0.007598376969540843 -0.02645424730030702 0.011907930679335071 -0.04281467451573924 0.016269466679296397 24.062564488763837 -0.029583374518701747 0.049906019168922455 28.856867739145958 -0.03365405536341494 -0.016783041470418984 28.894549687793866 -0.04135473848964562 -0.02187131204887047 10.86381672066342 2.5389435434435716 15.405680835995453 -79.116110799461 15.593019665483348 -16.6973302595039 0.5194416359778146 9.482638688140849 -50.804131373664745 -18.065344571171597 -0.3366888717432662 0.12631749589119484 -0.4469264923289259 0.029076445350276342 -8.083692264311214 -0.024258554240295733 0.0315206542280086 44.59379337102002 -0.01709085314138136 0.02078981649483621 44.563992122087804 12.46607353162913 0.02584525574202233 -0.04777126286942237 -0.04278182930807946 -0.008211545258875923 -0.0031660925573044002 -0.03558966195814421 -0.001921912018094172 0.021648474880259682 11.131743144535521 0.030677734347349703 -0.027664041326845683 0.023776299037032746 -0.038538787521515315 0.012233835236062758 -0.03899690008257892 -0.0036598000628130863 0.003353019967249926 4.803323401424311 0.0036481599759391136 -0.017633421008598868 0.014511538917271465 0.03807462267196048 -0.006359336356744339 0.029700269261953988 -0.00037235980526060007 -0.015000302559820532 -5.593985906009963 0.0073655389711988605 0.002765546011931062 -6.688100601706154 -0.03294841161134895 -0.0324216387041302 -6.717382116377586 0.02946500633831748 0.031227152035196586 -0.0005906017550317538 -0.009475361793365774 -0.0095449045195941 8.059641902681342 3.520209307628794 -19.19541472661199 -0.03570657219850638 10.393703637535424 0.005511391892473471 -5.645232134028585 -15.68807172935053 3.159762319877676 -0.012316624917959025 -0.04202178042607614 -0.03874780038392701 0.043366835623046204 4.740966331802377 0.01619461840031043 12.498192617970778 -8.225751877033147 6.894923923651263 0.01543844854963847 46.39489499927758 0.011558892668179496 -4.319588205084609 -14.70802881002769 -3.8651019472502637 -0.04439716991621826 0.04851997768996352 -0.043848572750548286 -0.0045347815214801185 -10.74387205890676 -0.008366449942288452 
0.04352753277720875 0.00111674545459347 -0.04433121229145778 0.048233512764804996 0.012147758445604897 -0.0258833767805442 5.597624764718626 3.3711739980464714 -2.291151154336638 -0.7803698278127763 3.712360413923794 0.38942632920115594 -0.5238279579563409 -1.1233098866094502 0.7112539715205394 -0.5394874970433569 -0.35652651440332706 -0.2511275412574918 -0.5029417363897599 13.486680354516357 -0.837904646676476 0.3633965179897102 -0.6115463793644234 -1.094198135431875 0.7309746404432051 -17.36649423602695 -0.13940351407602672 -10.247327603051755 3.5214240127243364 -17.99487472892153 83.75220376510255 7.979808781532074 2.797646160851018 -4.1127157887448025 7.614742205834791 44.295897661405185 17.87237464264408 -0.19895695766427554 -2.3839124965056993 4.531018245532567 -0.1116520793927054 -1.5684895902429281 0.00807325085579006 -0.021093958587569114 -56.24869220692037 0.022404809573724604 -0.016309212482708165 -56.24856072987353 -38.817723083432185 -0.042054123977571994 0.006887211844424342 0.017088322165796418 -0.016464717839376086 -0.02801827230295187 0.048316749110609875 0.015047514838412986 0.007410049580426705 -36.69662727475573 -0.007698155987566427 0.02323137427541671 0.02711418557832802 -0.019164476681369304 0.006662854047755085 -0.03161044716854364 -0.004975582861008835 -0.04088053848197173 -19.744608607048704 -0.01606249052668435 0.04858824374324123 0.03741892194094299 -0.014069245679776732 -0.01397444159514985 -0.03097825538824062 -0.015008139239131418 0.0024629551043831837 24.0471257435058 0.04006065506666176 -0.011247077282438865 28.829368911010086 -0.031307993788932884 -0.04614995251262205 28.827282015521657 -0.022651651230201433 0.039703114257432046 11.769774776117671 2.7183989093742924 15.668445319500762 -79.65455891780418 12.98604404040478 -21.250881552674286 -0.9018797183750868 11.68632001261399 -56.28247851751797 -16.895942322483872 0.35761958604328503 -0.8251699414312325 -0.4452380683632317 0.018940721143711432 -8.115279841289308 0.04028730272953222 -0.006627934497503301 44.53478794283284 -0.018383374152582975 0.015517494458620898 44.56241091429738 12.447933587795863 0.04981331411347707 -0.008396479818696786 -0.007643413755437208 -0.0007827165508738225 -0.011174608548210207 -0.019637020235888692 -0.01571333556542347 8.2450218774102e-05 11.115862833616264 -0.0258735571953063 0.013544118386245587 0.004439098264573336 0.032655990962669676 0.0021132848609240057 0.01379628108815889 -0.011025839691645254 -0.03156908872114582 4.744547699774624 -0.022429794122959208 0.009181466247942149 0.02507422117934852 -0.01901076342061922 -0.04375240017925416 0.019946230435586434 -0.025370162463125557 -0.016993295681320745 -5.595337640444666 -0.039382641737193906 0.04521815870571527 -6.734337066133127 -0.0424054985846011 0.037489615442700686 -6.752179614682191 -0.04077996973292141 -0.035534298763075296 -0.01616394208079998 0.028302547515174567 0.03204370899490503 8.07987923243823 3.4851300203002835 -19.231246479335137 0.014040956097892921 10.438161122880555 -0.00986277702349182 -5.635891028645984 -15.621990488374284 3.1723436564086107 0.0037400361687580518 -0.02259390066746882 0.03972702583156578 0.020845057026522264 4.678334996986443 -0.043507694698365934 12.449220069205857 -8.202365945339901 6.86244026636559 -0.01921920961135757 46.38703784084716 0.04523784203247031 -4.319404274389256 -14.70527138971968 -3.873788221142248 0.004940904204203765 0.04050976560807987 0.03533016018791036 -0.009133349821026905 -10.71558211247111 0.033755742499215834 
-0.0266242609510524 -0.04430534917066147 0.026018876451546488 -0.01130228007594831 -0.017178774550853558 -0.006316610337042067 5.6525057212334096 3.2876755422914767 -2.2806763772851433 -0.7500987398692417 3.681966488375047 0.3667220675845452 -0.45505892155794875 -1.1430543643901545 0.5330426429907358 -0.5375216139989252 -0.37868660869659004 -0.30226263523331226 -0.59247379492251 13.616058408262314 -0.7808043223483802 0.3364843334885449 -0.567475387933181 -0.7779158509855831 0.6826770495430586 -17.339556854676662 -0.12105444667449253 -10.241444698855835 3.4565039001105995 -18.05347927512203 83.76520605031845 7.838521967810026 2.838559166072162 -4.051943175170589 7.6890093333056075 44.006306866676425 17.89926861867085 -0.20521137553746938 -2.232284280450338 4.485291662388551 -0.09068942805765719 -1.5996598956211332 -0.042654289456102584 0.00017214569737687165 -56.244306438313245 0.032397055947222475 0.04001489368799112 -56.218461230306254 -38.78221102369216 -0.04721552250086944 -0.010575845325627154 0.033612474118562184 0.0358250801661763 0.04560716162756578 0.019820169376565635 0.019745565834805866 0.04873010442309833 -36.64973226221243 -0.038060167830294984 -0.00041019643906390355 0.0043879565449953094 0.006012706926678442 -0.015826929166742977 0.03298839691776741 0.001752953851617105 0.01797799941103299 -19.770828795029455 0.03955615281961606 0.032581915502694625 -0.03590281537280582 -0.04187262656343396 -0.03733697338030124 0.004396557823724215 -0.021207858324875487 0.017108697359331265 24.014559855336845 -0.02671456201515434 0.002526636913367592 28.85303897269031 -0.022186376780401494 0.004119675854533219 28.830049723895026 0.017248253058945076 -0.010481310349462968 12.266782902219637 2.7877366906471304 15.768044034772709 -79.80295766537107 10.956691562579287 -24.679706680410668 -1.6927842263447868 13.161373116740256 -60.55335494115317 -15.781817978967236 1.0799844579813576 -1.6912318135966729 -0.4738825980511639 0.09088904281453908 -8.11798295173703 -0.04184295832136892 -0.022360667440989416 44.59774674856265 0.04534812408344668 -0.017603224074234838 44.556283258504834 12.46504021993282 0.004369555845808209 -0.0037971792842245687 0.01126538892660239 -0.022867916378251564 0.033581127869230475 0.03035568991899598 -0.0011534735234729964 -0.007204392932502695 11.08066759311885 0.005264660046781752 0.02691254988600168 -0.014164293247830913 -0.01064603753255301 -0.03310759617534353 -0.00953161996304045 0.028775299503664847 0.004517685327212467 4.805142371904376 -0.023708262836333344 0.008962650607571017 -0.04124174903089688 -0.037454179798596894 0.0017824630216850418 -0.02102632102979364 0.0067553191379577816 -0.005770393150917452 -5.6492276486778055 0.009869865509155694 -0.04151885585409681 -6.682011945308171 -0.02255632460728978 0.024499886003143782 -6.688399092487935 -0.03327153668935906 0.0016109593428641166 0.01613804984962123 -0.006397467082374192 -0.03040467931975915 8.045521874950888 3.4774482493067502 -19.17105560355407 0.02484572930301905 10.397574788646475 0.031033964548909162 -5.594646237231399 -15.654759169748278 3.1623567808164696 0.004664561797350285 0.029055289224635725 -0.015031431875300547 0.009635567611999959 4.744147107128614 -0.01735370002465947 12.439738074050183 -8.229252546906249 6.8880387057803505 -0.04954113680124903 46.41729767017986 -0.03461447396786851 -4.356744209663737 -14.760229245906178 -3.8790205559686965 -0.04203427613955118 0.02118115271476145 -0.04368786250502427 0.038737291681544564 -10.782340675680926 -0.014271884296048094 
